<?xml version="1.0" encoding="UTF-8"?>
<svg width="79px" height="118px" viewBox="0 0 79 118" version="1.1" xmlns="http://www.w3.org/2000/svg" xmlns:xlink="http://www.w3.org/1999/xlink">
    <!-- Generator: Sketch 61.2 (89653) - https://sketch.com -->
    <title>deRoachLogo Dark</title>
    <desc>Created with Sketch.</desc>
    <g id="Page-1" stroke="none" stroke-width="1" fill="none" fill-rule="evenodd">
        <g id="deRoachLogo-Dark" transform="translate(39.500000, 59.000000) scale(-1, 1) translate(-39.500000, -59.000000) " fill="#333333" fill-rule="nonzero">
            <path d="M71.93,19.01 C72.16,18.55 72.41,18.5 73.07,17.42 C73.9048798,16.02679 74.4966556,14.5016993 74.82,12.91 C75.68,9.13 76.33,6.28 75.22,5.56 C74.44,5.05 73.5,6.08 68.83,8.73 C65.09,10.85 62.71,11.87 62.52,13.11 C60.2153716,13.1905579 57.9087647,13.0229266 55.64,12.61 C54.64,12.31 55.58,12.61 48.52,11.38 C43.19,10.38 41.05,9.93 39.52,9.7 C40,8.94 39.26,8.16 38.9,5.9 C38.7277095,4.7686829 38.6740851,3.62246121 38.74,2.48 C38.86,0.91 39.18,0.35 38.88,0.09 C38.58,-0.17 37.72,0.09 34.93,2.09 C33.0452417,3.43510757 31.2420648,4.89100596 29.53,6.45 C26.18,9.56 24.53,11.11 24.85,11.81 L24.85,11.88 C19.46,14.1 14.55,17.93 12.18,19.79 C9.97,21.51 -0.29,29.65 0.92,31.69 C1.2,32.17 1.92,31.94 3.21,33.02 C3.94292743,33.6537613 4.61272355,34.3570473 5.21,35.12 L4.87,35.04 C4.67,35.04 0.23,33.98 0.03,34.52 C-0.17,35.06 2.03,36.27 4.33,37.14 C6.35563742,37.8636033 8.4804239,38.2716972 10.63,38.35 C14.2233227,38.7356997 17.8362505,38.9093339 21.45,38.87 C24.6616536,38.8492439 27.8635723,38.5143152 31.01,37.87 C31.2204411,38.2159385 31.2644894,38.6380687 31.13,39.02 C31.04,39.25 30.82,39.59 29.13,40.24 C26.91,41.12 26.3,40.91 24.97,41.59 C24.0425066,42.108039 23.2132354,42.784995 22.52,43.59 C21.11,45.01 21.23,45.47 19.95,47.02 C18.17,49.17 17.33,49.02 15.79,51.18 C14.86,52.48 14.35,53.18 14.44,54.12 C14.53,55.06 15.23,55.48 17.99,57.79 C19.41,58.98 20.91,60.09 22.28,61.34 C23.43,62.39 24.21,63.2 25.34,63.18 C26.26,63.18 26.67,62.61 27.05,62.81 C27.88,63.24 26.94,66.41 26.44,68.57 C25.75,71.57 24.27,77.93 25.83,83.51 C26.5261175,85.6016594 26.8641994,87.7958111 26.83,90 C26.7937933,90.8203654 26.7136785,91.6382032 26.59,92.45 C26.15,96.13 26.43,98.03 26.35,106.78 C26.35,108.78 26.35,109.12 26.11,109.6 C24.8,112.6 20.49,112.45 20.11,114.74 C19.9818645,115.53999 20.3143268,116.344085 20.97,116.82 C22.05,117.48 23.79,116.32 24.15,116.09 C25.65,115.09 25.47,114.23 27.09,113.15 C28.23,112.39 28.55,112.66 29.09,112.05 C29.86,111.11 29.51,109.98 29.46,107.76 C29.4443655,106.422646 29.5245709,105.08589 29.7,103.76 C30.23,99.93 31.7,99.03 31.7,95.76 C31.7,94.35 31.43,94.51 31.33,92.94 C30.95,86.6 35.12,79.78 33.92,77.21 C33.98,77.28 34.19,77.34 34.92,76.87 L34.92,76.87 C36.58,85.87 38.39,88.77 38.39,88.77 C39.1419183,89.9000408 39.718449,91.1373903 40.1,92.44 L40.47,94.03 L40.47,94.03 C40.5420874,97.4338178 41.2474458,100.794444 42.55,103.94 C43.16,105.31 44.03,106.82 43.77,108.84 C43.66,109.71 43.47,109.68 43.4,110.55 C43.33,111.42 43.4,112.07 44.75,115.45 C45.4,117.12 45.57,117.45 45.97,117.65 C46.956075,118.117312 48.1287869,117.92186 48.91,117.16 C49.477992,116.661113 49.7530697,115.907475 49.64,115.16 C49.4797382,114.50911 49.0302088,113.967464 48.42,113.69 C47.74,111.89 47.56,111.36 47.56,111.36 C47.56,111.36 47.32,110.64 47.07,109.77 C46.5,107.77 46.6,104.24 46.58,102.18 C46.58,97.7 46.51,95.39 45.48,93.12 C45.0175138,92.1887865 44.681219,91.2000798 44.48,90.18 C44.2809076,89.0881919 44.2404907,87.9733586 44.36,86.87 C44.840715,82.8865544 44.8809579,78.8622623 44.48,74.87 C44.2842039,73.0110137 43.9499423,71.169232 43.48,69.36 C43.173947,68.4897606 42.9692618,67.5871326 42.87,66.67 C42.9214336,65.8853662 42.8402979,65.0976743 42.63,64.34 C42.24,63.34 41.63,63.06 41.77,62.75 C41.91,62.44 43.28,62.89 44.59,62.38 C45.4586123,61.9516167 46.1616167,61.2486123 46.59,60.38 C47.1,59.65 47.69,59.12 56.39,54.38 C57.1955696,54.0375266 57.8173643,53.3684609 58.1,52.54 C58.1800539,52.0369409 58.0958962,51.5214754 57.86,51.07 C57.36,49.93 56.68,49.6 55.17,48.25 C53.01,46.33 53.11,45.86 51.86,45.31 C51.2503433,45.1101136 50.6739787,44.8202461 50.15,44.45 C49.6278834,43.9506213 49.1369577,43.41962 48.68,42.86 C48.1200815,42.3066419 47.5033333,41.8139137 46.84,41.39 C46.2552421,41.0065807 45.639817,40.6721105 45,40.39 C43.8525225,39.7832449 42.6123654,39.3709856 41.33,39.17 C39.92,39.01 39.5,39.34 38.27,38.93 C37.6967818,38.8179862 37.1785315,38.5147922 36.8,38.07 C36.31,37.34 36.71,36.5 36.93,35.77 C37.88,35.34 38.99,34.77 40.39,34.16 C41.7768147,34.6453825 43.2116863,34.9806329 44.67,35.16 C46.73,35.55 50.5,36.07 50.73,35.31 C50.6848297,34.9866493 50.5119385,34.6948954 50.25,34.5 C49.7273491,33.8808955 49.1136819,33.3447797 48.43,32.91 C47.7524973,32.4771913 47.2088679,31.8643097 46.86,31.14 L48.18,30.55 C49.1570465,30.1455301 50.0888394,29.6394123 50.96,29.04 C53.47,27.28 53.24,26.04 55.37,24.88 C56.9119703,24.0519771 58.6213219,23.5836148 60.37,23.51 C61.1587386,23.5503808 61.9438545,23.6439265 62.72,23.79 C62.72,24.9 67.13,26.79 68.17,27.28 C74.74,30.13 78.04,31.54 78.48,30.9 C79.4,29.56 70.16,22.51 71.93,19.01 Z M8.77,29.69 C8.12643844,29.9423113 7.39394745,29.7720529 6.92764222,29.2617668 C6.46133698,28.7514806 6.35760981,28.0066507 6.66674812,27.3883741 C6.97588643,26.7700974 7.6339867,26.4061812 8.32199873,26.4730537 C9.01001076,26.5399262 9.58571212,27.023764 9.77,27.69 C10.0294862,28.5171692 9.58742704,29.4012875 8.77,29.69 Z M27.45,58.59 C26.91,59.15 25.78,58.84 24.88,58.59 C23.5178448,58.1767299 22.2643785,57.4663184 21.21,56.51 C19.84,55.33 19.04,54.65 19.13,53.82 C19.19,53.28 19.58,52.96 21.82,51.37 L24.27,49.66 C24.8446207,49.8477892 25.3542942,50.1945059 25.74,50.66 C26.49,51.58 26.08,52.32 26.74,54.21 C27.0939323,54.9601572 27.3816917,55.7397842 27.6,56.54 C27.8458095,57.2142937 27.7874512,57.9620096 27.44,58.59 L27.45,58.59 Z M43.86,51.84 C44.3931746,50.6044381 44.8441563,49.3350084 45.21,48.04 C45.9553786,48.8605519 46.8221058,49.5620276 47.78,50.12 C48.8494883,50.682913 49.9552668,51.173999 51.09,51.59 C51.160536,52.1176532 51.160536,52.6523468 51.09,53.18 C50.91,53.95 50.16,54.06 48.64,55.02 C47.4156944,55.8083213 46.2674098,56.708871 45.21,57.71 C44.4829682,57.5923642 43.7455134,57.5521394 43.01,57.59 C41.75,57.69 41.39,58.15 41.17,57.96 C40.68,57.54 42.4,55.24 43.86,51.84 Z M26.86,26.96 C26.5898756,28.0232454 26.0763708,29.0091746 25.36,29.84 C22.83,32.53 17.93,31.84 17.78,31.13 C17.67,30.64 19.86,30.04 19.78,29.04 C19.72,28.37 18.71,28.16 18.78,27.73 C18.85,27.3 20.59,27.27 22.43,26.63 C25.35,25.63 26.43,23.45 27.08,23.86 C27.73,24.27 26.99,26.61 26.88,26.98 L26.86,26.96 Z" id="Shape"/>
        </g>
    </g>
<script xmlns=""/></svg>